HIERARCHY
ROOT mixamorig:Hips
{
	OFFSET -0.000008 104.274872 1.554316
	CHANNELS 6 Xposition Yposition Zposition Xrotation Yrotation Zrotation
	JOINT mixamorig:Spine
	{
		OFFSET -0.000005 10.181595 0.131519
		CHANNELS 6 Xposition Yposition Zposition Xrotation Yrotation Zrotation
		JOINT mixamorig:Spine1
		{
			OFFSET -0.000000 9.893959 -1.470707
			CHANNELS 6 Xposition Yposition Zposition Xrotation Yrotation Zrotation
			JOINT mixamorig:Spine2
			{
				OFFSET -0.000000 9.220757 -1.370641
				CHANNELS 6 Xposition Yposition Zposition Xrotation Yrotation Zrotation
				JOINT mixamorig:Neck
				{
					OFFSET 0.000001 16.740417 -2.049036
					CHANNELS 6 Xposition Yposition Zposition Xrotation Yrotation Zrotation
					JOINT mixamorig:Head
					{
						OFFSET 0.000000 9.617874 1.685006
						CHANNELS 6 Xposition Yposition Zposition Xrotation Yrotation Zrotation
						JOINT mixamorig:HeadTop_End
						{
							OFFSET 0.000002 22.037354 7.501101
							CHANNELS 6 Xposition Yposition Zposition Xrotation Yrotation Zrotation
							End Site
							{
								OFFSET 0.000168 2310.654297 -282.823242
							}
						}
					}
				}
				JOINT mixamorig:RightShoulder
				{
					OFFSET -4.569970 11.014908 -2.160885
					CHANNELS 6 Xposition Yposition Zposition Xrotation Yrotation Zrotation
					JOINT mixamorig:RightArm
					{
						OFFSET -10.592851 -0.524811 -2.232101
						CHANNELS 6 Xposition Yposition Zposition Xrotation Yrotation Zrotation
						JOINT mixamorig:RightForeArm
						{
							OFFSET -27.841511 0.000031 -0.000004
							CHANNELS 6 Xposition Yposition Zposition Xrotation Yrotation Zrotation
							JOINT mixamorig:RightHand
							{
								OFFSET -28.328831 -0.000015 0.000015
								CHANNELS 6 Xposition Yposition Zposition Xrotation Yrotation Zrotation
								JOINT mixamorig:RightHandThumb1
								{
									OFFSET -2.464806 -1.573990 2.681852
									CHANNELS 6 Xposition Yposition Zposition Xrotation Yrotation Zrotation
									JOINT mixamorig:RightHandThumb2
									{
										OFFSET -3.215179 -1.872803 1.924282
										CHANNELS 6 Xposition Yposition Zposition Xrotation Yrotation Zrotation
										JOINT mixamorig:RightHandThumb3
										{
											OFFSET -2.654831 -1.527969 1.512609
											CHANNELS 6 Xposition Yposition Zposition Xrotation Yrotation Zrotation
											JOINT mixamorig:RightHandThumb4
											{
												OFFSET -2.018814 -1.152008 1.108052
												CHANNELS 6 Xposition Yposition Zposition Xrotation Yrotation Zrotation
												End Site
												{
													OFFSET -188.809540 -114.533607 132.431396
												}
											}
										}
									}
								}
								JOINT mixamorig:RightHandIndex1
								{
									OFFSET -9.108284 -0.517868 2.259835
									CHANNELS 6 Xposition Yposition Zposition Xrotation Yrotation Zrotation
									JOINT mixamorig:RightHandIndex2
									{
										OFFSET -3.699989 0.000000 0.001215
										CHANNELS 6 Xposition Yposition Zposition Xrotation Yrotation Zrotation
										JOINT mixamorig:RightHandIndex3
										{
											OFFSET -2.850006 0.000031 -0.000522
											CHANNELS 6 Xposition Yposition Zposition Xrotation Yrotation Zrotation
											JOINT mixamorig:RightHandIndex4
											{
												OFFSET -2.772186 -0.000015 -0.000020
												CHANNELS 6 Xposition Yposition Zposition Xrotation Yrotation Zrotation
												End Site
												{
													OFFSET -277.218445 0.000000 -0.050231
												}
											}
										}
									}
								}
								JOINT mixamorig:RightHandMiddle1
								{
									OFFSET -9.532516 -0.000031 -0.000023
									CHANNELS 6 Xposition Yposition Zposition Xrotation Yrotation Zrotation
									JOINT mixamorig:RightHandMiddle2
									{
										OFFSET -3.700005 -0.000015 0.003713
										CHANNELS 6 Xposition Yposition Zposition Xrotation Yrotation Zrotation
										JOINT mixamorig:RightHandMiddle3
										{
											OFFSET -2.949974 0.000015 -0.002054
											CHANNELS 6 Xposition Yposition Zposition Xrotation Yrotation Zrotation
											JOINT mixamorig:RightHandMiddle4
											{
												OFFSET -2.946640 0.000000 -0.000156
												CHANNELS 6 Xposition Yposition Zposition Xrotation Yrotation Zrotation
												End Site
												{
													OFFSET -294.664337 0.000000 -0.113670
												}
											}
										}
									}
								}
								JOINT mixamorig:RightHandRing1
								{
									OFFSET -9.103600 -0.043076 -1.865134
									CHANNELS 6 Xposition Yposition Zposition Xrotation Yrotation Zrotation
									JOINT mixamorig:RightHandRing2
									{
										OFFSET -3.379288 0.000000 -0.001055
										CHANNELS 6 Xposition Yposition Zposition Xrotation Yrotation Zrotation
										JOINT mixamorig:RightHandRing3
										{
											OFFSET -2.889687 -0.000015 0.000379
											CHANNELS 6 Xposition Yposition Zposition Xrotation Yrotation Zrotation
											JOINT mixamorig:RightHandRing4
											{
												OFFSET -2.638809 -0.000015 0.000941
												CHANNELS 6 Xposition Yposition Zposition Xrotation Yrotation Zrotation
												End Site
												{
													OFFSET -263.880371 0.000000 0.516020
												}
											}
										}
									}
								}
								JOINT mixamorig:RightHandPinky1
								{
									OFFSET -8.076683 -0.486710 -3.806280
									CHANNELS 6 Xposition Yposition Zposition Xrotation Yrotation Zrotation
									JOINT mixamorig:RightHandPinky2
									{
										OFFSET -3.600014 -0.000015 -0.003747
										CHANNELS 6 Xposition Yposition Zposition Xrotation Yrotation Zrotation
										JOINT mixamorig:RightHandPinky3
										{
											OFFSET -2.099983 0.000000 -0.005739
											CHANNELS 6 Xposition Yposition Zposition Xrotation Yrotation Zrotation
											JOINT mixamorig:RightHandPinky4
											{
												OFFSET -2.115768 -0.000031 -0.003680
												CHANNELS 6 Xposition Yposition Zposition Xrotation Yrotation Zrotation
												End Site
												{
													OFFSET -211.577087 0.000000 -0.350686
												}
											}
										}
									}
								}
							}
						}
					}
				}
				JOINT mixamorig:LeftShoulder
				{
					OFFSET 4.570447 11.014725 -2.160855
					CHANNELS 6 Xposition Yposition Zposition Xrotation Yrotation Zrotation
					JOINT mixamorig:LeftArm
					{
						OFFSET 10.592371 -0.524597 -2.232119
						CHANNELS 6 Xposition Yposition Zposition Xrotation Yrotation Zrotation
						JOINT mixamorig:LeftForeArm
						{
							OFFSET 27.841532 -0.000031 0.000026
							CHANNELS 6 Xposition Yposition Zposition Xrotation Yrotation Zrotation
							JOINT mixamorig:LeftHand
							{
								OFFSET 28.328846 -0.000061 0.000022
								CHANNELS 6 Xposition Yposition Zposition Xrotation Yrotation Zrotation
								JOINT mixamorig:LeftHandThumb1
								{
									OFFSET 2.466141 -1.576172 2.681732
									CHANNELS 6 Xposition Yposition Zposition Xrotation Yrotation Zrotation
									JOINT mixamorig:LeftHandThumb2
									{
										OFFSET 3.217812 -1.872070 1.916482
										CHANNELS 6 Xposition Yposition Zposition Xrotation Yrotation Zrotation
										JOINT mixamorig:LeftHandThumb3
										{
											OFFSET 2.656029 -1.528778 1.514513
											CHANNELS 6 Xposition Yposition Zposition Xrotation Yrotation Zrotation
											JOINT mixamorig:LeftHandThumb4
											{
												OFFSET 2.020889 -1.154053 1.115139
												CHANNELS 6 Xposition Yposition Zposition Xrotation Yrotation Zrotation
												End Site
												{
													OFFSET 190.885437 -115.081749 130.048782
												}
											}
										}
									}
								}
								JOINT mixamorig:LeftHandIndex1
								{
									OFFSET 9.109314 -0.518021 2.259871
									CHANNELS 6 Xposition Yposition Zposition Xrotation Yrotation Zrotation
									JOINT mixamorig:LeftHandIndex2
									{
										OFFSET 3.699989 0.000000 -0.000322
										CHANNELS 6 Xposition Yposition Zposition Xrotation Yrotation Zrotation
										JOINT mixamorig:LeftHandIndex3
										{
											OFFSET 2.850006 0.000000 0.000352
											CHANNELS 6 Xposition Yposition Zposition Xrotation Yrotation Zrotation
											JOINT mixamorig:LeftHandIndex4
											{
												OFFSET 2.774864 -0.000031 -0.000027
												CHANNELS 6 Xposition Yposition Zposition Xrotation Yrotation Zrotation
												End Site
												{
													OFFSET 277.486267 0.000000 -0.009857
												}
											}
										}
									}
								}
								JOINT mixamorig:LeftHandMiddle1
								{
									OFFSET 9.533394 0.000061 0.000044
									CHANNELS 6 Xposition Yposition Zposition Xrotation Yrotation Zrotation
									JOINT mixamorig:LeftHandMiddle2
									{
										OFFSET 3.699989 -0.000015 -0.000231
										CHANNELS 6 Xposition Yposition Zposition Xrotation Yrotation Zrotation
										JOINT mixamorig:LeftHandMiddle3
										{
											OFFSET 2.949997 -0.000015 -0.000059
											CHANNELS 6 Xposition Yposition Zposition Xrotation Yrotation Zrotation
											JOINT mixamorig:LeftHandMiddle4
											{
												OFFSET 2.952896 0.000031 0.000063
												CHANNELS 6 Xposition Yposition Zposition Xrotation Yrotation Zrotation
												End Site
												{
													OFFSET 295.289337 0.000000 0.022810
												}
											}
										}
									}
								}
								JOINT mixamorig:LeftHandRing1
								{
									OFFSET 9.104523 -0.042999 -1.865074
									CHANNELS 6 Xposition Yposition Zposition Xrotation Yrotation Zrotation
									JOINT mixamorig:LeftHandRing2
									{
										OFFSET 3.150009 -0.000031 0.000043
										CHANNELS 6 Xposition Yposition Zposition Xrotation Yrotation Zrotation
										JOINT mixamorig:LeftHandRing3
										{
											OFFSET 2.949982 -0.000015 0.000040
											CHANNELS 6 Xposition Yposition Zposition Xrotation Yrotation Zrotation
											JOINT mixamorig:LeftHandRing4
											{
												OFFSET 2.644348 0.000000 0.000057
												CHANNELS 6 Xposition Yposition Zposition Xrotation Yrotation Zrotation
												End Site
												{
													OFFSET 264.434631 0.000000 0.012105
												}
											}
										}
									}
								}
								JOINT mixamorig:LeftHandPinky1
								{
									OFFSET 8.077789 -0.486847 -3.806259
									CHANNELS 6 Xposition Yposition Zposition Xrotation Yrotation Zrotation
									JOINT mixamorig:LeftHandPinky2
									{
										OFFSET 3.599953 0.000031 0.014727
										CHANNELS 6 Xposition Yposition Zposition Xrotation Yrotation Zrotation
										JOINT mixamorig:LeftHandPinky3
										{
											OFFSET 2.100021 0.000015 0.007705
											CHANNELS 6 Xposition Yposition Zposition Xrotation Yrotation Zrotation
											JOINT mixamorig:LeftHandPinky4
											{
												OFFSET 2.125504 0.000031 0.007517
												CHANNELS 6 Xposition Yposition Zposition Xrotation Yrotation Zrotation
												End Site
												{
													OFFSET 212.550781 0.000000 0.625752
												}
											}
										}
									}
								}
							}
						}
					}
				}
			}
		}
	}
	JOINT mixamorig:RightUpLeg
	{
		OFFSET -8.207787 -6.751648 -1.599560
		CHANNELS 6 Xposition Yposition Zposition Xrotation Yrotation Zrotation
		JOINT mixamorig:RightLeg
		{
			OFFSET -0.000002 -44.370117 0.345942
			CHANNELS 6 Xposition Yposition Zposition Xrotation Yrotation Zrotation
			JOINT mixamorig:RightFoot
			{
				OFFSET 0.000003 -44.423679 -3.043532
				CHANNELS 6 Xposition Yposition Zposition Xrotation Yrotation Zrotation
				JOINT mixamorig:RightToeBase
				{
					OFFSET -0.000002 -8.728671 10.710558
					CHANNELS 6 Xposition Yposition Zposition Xrotation Yrotation Zrotation
					JOINT mixamorig:RightToe_End
					{
						OFFSET -0.000001 -0.000679 9.278119
						CHANNELS 6 Xposition Yposition Zposition Xrotation Yrotation Zrotation
						End Site
						{
							OFFSET 0.000000 -0.067690 927.812134
						}
					}
				}
			}
		}
	}
	JOINT mixamorig:LeftUpLeg
	{
		OFFSET 8.207793 -6.751686 -1.599556
		CHANNELS 6 Xposition Yposition Zposition Xrotation Yrotation Zrotation
		JOINT mixamorig:LeftLeg
		{
			OFFSET -0.000004 -44.370014 0.346954
			CHANNELS 6 Xposition Yposition Zposition Xrotation Yrotation Zrotation
			JOINT mixamorig:LeftFoot
			{
				OFFSET -0.000001 -44.423672 -3.044401
				CHANNELS 6 Xposition Yposition Zposition Xrotation Yrotation Zrotation
				JOINT mixamorig:LeftToeBase
				{
					OFFSET -0.000002 -8.728669 10.710558
					CHANNELS 6 Xposition Yposition Zposition Xrotation Yrotation Zrotation
					JOINT mixamorig:LeftToe_End
					{
						OFFSET -0.000003 -0.000679 9.278133
						CHANNELS 6 Xposition Yposition Zposition Xrotation Yrotation Zrotation
						End Site
						{
							OFFSET 0.000000 -0.068021 927.813477
						}
					}
				}
			}
		}
	}
}
MOTION
Frames: 3
Frame Time: 0.033333
0.000006 104.270477 1.554256 0.000010 0.000003 -0.000113 -0.000005 10.181587 0.131522 0.000001 -0.000003 0.000084 -0.000000 9.893967 -1.470711 0.000001 0.000000 -0.000000 -0.000000 9.220802 -1.370642 0.000000 -0.000000 -0.000000 0.000001 16.740433 -2.049030 0.000000 -0.000000 -0.000000 0.000000 9.617859 1.685014 0.000000 0.000000 0.000000 0.000002 22.037384 7.501101 0.000000 -0.000000 0.000000 -4.569968 11.014880 -2.160881 0.000008 0.000001 -0.000038 -10.592772 -0.524842 -2.231738 75.964339 67.939038 -55.492504 -27.841492 0.000006 0.000578 48.769347 102.845655 -59.219147 -28.328831 0.000020 0.000018 -0.000322 -0.000044 0.000007 -2.464933 -1.574038 2.682141 106.548096 -211.794454 167.497685 -3.215232 -1.872944 1.924575 267.092744 12.103382 339.685224 -2.654934 -1.528123 1.513024 235.551532 19.117211 -21.427681 -2.018841 -1.151997 1.108052 -0.000001 0.000003 0.000002 -9.108109 -0.517800 2.260436 185.794014 25.044501 -205.797397 -3.699747 0.000022 0.001822 179.581232 21.954047 -177.731344 -2.849890 -0.000018 0.000055 173.663037 16.546200 -138.308749 -2.772163 -0.000015 -0.000021 -0.000000 0.000003 -0.000000 -9.532281 0.000015 0.000568 183.724480 19.200415 -202.292335 -3.699716 0.000047 0.004311 181.816849 14.756173 -193.425370 -2.949851 -0.000040 -0.001482 176.067524 13.248026 -146.999714 -2.946625 0.000014 -0.000159 -0.000001 -0.000000 0.000000 -9.103350 -0.042984 -1.864523 182.241851 17.534093 -194.260976 -3.378992 0.000034 -0.000460 181.995404 15.360791 -194.812144 -2.889421 -0.000038 0.000968 177.828114 12.241376 -160.384357 -2.638823 -0.000016 0.000944 0.000000 0.000000 -0.000001 -8.076489 -0.486671 -3.805686 176.339037 16.016746 -153.409764 -3.599766 -0.000091 -0.003164 178.033074 14.441783 -161.765394 -2.099621 -0.000048 -0.005146 178.606988 12.078730 -164.787002 -2.115759 -0.000046 -0.003680 -0.000004 0.000001 -0.000004 4.570446 11.014691 -2.160851 -0.000018 0.000010 -0.000021 10.592518 -0.524554 -2.232369 52.027385 -72.834911 39.601423 27.841774 -0.000089 -0.000112 214.822782 -74.786125 224.614227 28.328833 -0.000029 0.000016 0.000020 -0.000089 -0.000000 2.465936 -1.576178 2.681868 -45.794598 141.707642 7.588045 3.217582 -1.872038 1.916571 -35.126471 -213.016443 350.519571 2.655820 -1.528763 1.514657 145.872282 18.970601 166.196889 2.020884 -1.154067 1.115146 0.000002 0.000004 0.000002 9.109345 -0.518015 2.259926 -11.031116 -158.090944 -53.089705 3.700138 0.000099 -0.000312 -25.096934 -156.580215 -94.014747 2.850111 0.000226 0.000313 -38.362789 -162.540156 -132.369175 2.774856 -0.000016 -0.000033 -0.000000 0.000002 0.000006 9.533495 0.000235 -0.000044 -61.854637 -159.113751 -145.816110 3.700037 0.000099 -0.000371 -111.897603 -160.717794 -166.903855 2.950027 -0.000001 -0.000141 34.089098 -15.201235 4.686425 2.952860 -0.000026 0.000068 -0.000000 -0.000000 -0.000001 9.104609 -0.042777 -1.865195 112.195051 -16.884733 24.911274 3.149988 0.000105 -0.000103 43.093750 11.304806 -4.475605 2.949954 0.000006 -0.000006 -7.937580 23.785789 1.673822 2.644320 0.000032 0.000042 -0.000000 -0.000002 -0.000001 8.077851 -0.486584 -3.806363 119.312463 -11.274621 20.097797 3.599893 0.000113 0.014556 50.202768 23.849057 -11.219693 2.099983 -0.000029 0.007680 -13.592601 31.494207 3.689214 2.125516 -0.000032 0.007515 -0.000002 -0.000003 0.000001 -8.207786 -6.751667 -1.599560 -0.077001 -0.000003 0.000080 -0.000002 -44.370110 0.345938 0.153719 -0.000000 -0.000000 0.000000 -44.423679 -3.043532 -0.076700 0.000000 -0.000002 -0.000006 -8.728667 10.710559 -0.000009 -0.000000 -0.000000 -0.000001 -0.000679 9.278123 0.000000 -0.000000 -0.000000 8.207792 -6.751710 -1.599556 -0.074518 -0.000003 0.000081 -0.000002 -44.370014 0.346960 0.148822 0.000002 0.000000 -0.000001 -44.423664 -3.044403 -0.074314 0.000000 -0.000002 -0.000004 -8.728671 10.710558 0.000007 -0.000000 -0.000000 0.000000 -0.000680 9.278137 -0.000000 0.000000 -0.000001 
0.000006 104.270477 1.554256 0.000010 0.000003 -0.000113 -0.000005 10.181587 0.131522 0.000001 -0.000003 0.000084 -0.000000 9.893967 -1.470711 0.000001 0.000000 -0.000000 -0.000000 9.220802 -1.370642 0.000000 -0.000000 -0.000000 0.000001 16.740433 -2.049030 0.000000 -0.000000 -0.000000 0.000000 9.617859 1.685014 0.000000 0.000000 0.000000 0.000002 22.037384 7.501101 0.000000 -0.000000 0.000000 -4.569968 11.014880 -2.160881 0.000008 0.000001 -0.000038 -10.592775 -0.524848 -2.231748 76.927123 66.746255 -55.243868 -27.841509 -0.000005 0.000553 60.242849 101.593914 -70.847947 -28.328838 0.000022 0.000029 -0.000320 -0.000043 0.000008 -2.464899 -1.574104 2.682166 93.425096 -199.571775 163.362456 -3.215206 -1.872983 1.924625 253.686777 4.019725 332.617645 -2.654879 -1.528197 1.513008 239.918509 6.589791 -30.319958 -2.018846 -1.151982 1.108062 -0.000002 -0.000002 0.000004 -9.108081 -0.517822 2.260434 183.038893 20.823018 -196.601517 -3.699797 -0.000055 0.001815 173.858067 19.433486 -145.064106 -2.849978 0.000017 0.000043 166.552947 15.476157 -98.104903 -2.772164 -0.000015 -0.000019 -0.000000 0.000003 0.000000 -9.532288 -0.000030 0.000562 180.935727 16.771079 -187.071559 -3.699823 -0.000051 0.004300 174.838226 14.491339 -140.202105 -2.949994 -0.000020 -0.001493 168.933937 13.068268 -99.497825 -2.946625 -0.000015 -0.000152 -0.000000 -0.000001 0.000000 -9.103374 -0.043092 -1.864551 178.140882 15.181185 -165.819754 -3.379076 -0.000075 -0.000467 174.931281 12.714187 -136.827704 -2.889635 -0.000051 0.000943 170.194654 10.704539 -95.502027 -2.638804 -0.000012 0.000938 0.000002 0.000002 0.000001 -8.076557 -0.486737 -3.805707 172.751194 13.725390 -123.292633 -3.599819 -0.000106 -0.003161 175.685334 11.048622 -133.480229 -2.099689 -0.000090 -0.005165 176.538356 9.076414 -135.246871 -2.115777 -0.000042 -0.003684 0.000000 0.000001 -0.000003 4.570446 11.014691 -2.160851 -0.000018 0.000010 -0.000021 10.592512 -0.524557 -2.232373 54.682494 -69.210887 39.269035 27.841768 -0.000034 -0.000111 216.944853 -75.026513 227.032332 28.328840 -0.000028 0.000026 0.000022 -0.000089 -0.000000 2.466005 -1.576177 2.681878 -30.642776 132.913514 -15.780384 3.217600 -1.872039 1.916569 -31.467044 -210.701979 342.682421 2.655804 -1.528391 1.514509 146.830762 -37.441745 292.264314 2.020868 -1.154055 1.115153 0.000003 0.000002 0.000003 9.109335 -0.518002 2.259921 -11.652609 -155.951633 -51.251141 3.700112 0.000109 -0.000327 -30.352934 -151.875048 -94.504587 2.850121 0.000252 0.000310 -43.705001 -162.650150 -138.344785 2.774869 -0.000029 -0.000029 0.000004 0.000000 0.000001 9.533467 0.000073 0.000092 -12.437651 -159.990255 -63.452642 3.700122 0.000189 -0.000247 -28.668493 -163.724129 -121.547861 2.950109 0.000270 -0.000118 140.630672 -11.975058 32.688254 2.952888 -0.000027 0.000063 0.000000 -0.000000 0.000003 9.104637 -0.042764 -1.865160 128.620303 -17.036613 34.592654 3.150002 0.000134 -0.000132 56.775572 3.154070 -1.704063 2.949957 0.000040 -0.000069 18.946875 15.535822 -2.607924 2.644311 0.000028 0.000058 -0.000000 -0.000002 -0.000000 8.077863 -0.486554 -3.806370 127.747856 -9.374885 20.108574 3.599885 0.000155 0.014507 59.284840 21.565965 -12.246557 2.099974 0.000005 0.007678 -6.920958 28.603505 1.639775 2.125492 0.000014 0.007516 -0.000001 -0.000003 -0.000001 -8.207786 -6.751667 -1.599560 -0.077001 -0.000003 0.000080 -0.000002 -44.370110 0.345938 0.153719 -0.000000 -0.000000 0.000000 -44.423679 -3.043532 -0.076700 0.000000 -0.000002 -0.000006 -8.728667 10.710559 -0.000009 -0.000000 -0.000000 -0.000001 -0.000679 9.278123 0.000000 -0.000000 -0.000000 8.207792 -6.751710 -1.599556 -0.074518 -0.000003 0.000081 -0.000002 -44.370014 0.346960 0.148822 0.000002 0.000000 -0.000001 -44.423664 -3.044403 -0.074314 0.000000 -0.000002 -0.000004 -8.728671 10.710558 0.000007 -0.000000 -0.000000 0.000000 -0.000680 9.278137 -0.000000 0.000000 -0.000001 
0.000006 104.270477 1.554256 0.000010 0.000003 -0.000113 -0.000005 10.181587 0.131522 0.000001 -0.000003 0.000084 -0.000000 9.893967 -1.470711 0.000001 0.000000 -0.000000 -0.000000 9.220802 -1.370642 0.000000 -0.000000 -0.000000 0.000001 16.740433 -2.049030 0.000000 -0.000000 -0.000000 0.000000 9.617859 1.685014 0.000000 0.000000 0.000000 0.000002 22.037384 7.501101 0.000000 -0.000000 0.000000 -4.569968 11.014880 -2.160881 0.000008 0.000001 -0.000038 -10.592773 -0.524845 -2.231747 77.249856 66.109585 -54.945730 -27.841534 -0.000015 0.000549 77.548424 101.526807 -89.054622 -28.328825 0.000022 0.000025 -0.000318 -0.000043 0.000006 -2.464848 -1.574115 2.681988 137.308194 -188.823038 167.876569 -3.215174 -1.872967 1.924411 303.654966 -1.018331 344.725521 -2.654912 -1.528161 1.512782 305.213369 9.399780 -14.066436 -2.018834 -1.152003 1.108063 -0.000000 -0.000003 0.000002 -9.108291 -0.517870 2.260393 231.577864 35.431559 -293.055878 -3.699992 0.000019 0.001759 238.398300 39.560244 -294.475792 -2.850046 0.000015 0.000016 238.815324 31.680736 53.439950 -2.772172 -0.000012 -0.000023 0.000001 -0.000003 0.000000 -9.532511 -0.000031 0.000551 226.172261 21.841395 -311.196205 -3.699974 0.000090 0.004298 215.514366 16.407788 -311.625933 -2.949921 0.000092 -0.001466 210.130018 23.083823 74.372864 -2.946623 0.000016 -0.000164 0.000000 -0.000003 -0.000001 -9.103561 -0.043018 -1.864548 221.009048 27.911884 -292.802778 -3.379273 0.000047 -0.000477 202.306160 2.141937 10.901168 -2.889687 0.000110 0.000956 209.781296 8.198700 30.270104 -2.638794 -0.000014 0.000943 0.000000 0.000002 0.000000 -8.076642 -0.486606 -3.805698 209.999371 19.277005 -295.362597 -3.599885 -0.000178 -0.003222 197.481300 -12.334995 -72.538453 -2.099980 0.000008 -0.005187 208.328611 0.696018 1.975823 -2.115777 -0.000053 -0.003680 -0.000000 -0.000001 -0.000005 4.570446 11.014691 -2.160851 -0.000018 0.000010 -0.000021 10.592512 -0.524550 -2.232378 57.004148 -66.095078 38.913770 27.841770 -0.000036 -0.000112 215.624619 -75.860794 224.810731 28.328840 -0.000029 0.000024 0.000020 -0.000089 -0.000000 2.466186 -1.576146 2.681894 46.816763 135.694740 -109.790940 3.217866 -1.871942 1.916548 56.894390 -204.305342 231.582564 2.656124 -1.528609 1.514610 223.904652 -2.170332 400.025192 2.020894 -1.154066 1.115135 -0.000000 0.000001 0.000004 9.109238 -0.518044 2.259976 -1.297445 -119.309171 -2.233418 3.700069 0.000037 -0.000318 -68.580604 -127.933282 -108.746754 2.850082 0.000112 0.000275 -91.926416 -141.955442 -143.128690 2.774861 -0.000031 -0.000029 0.000002 0.000001 -0.000002 9.533315 0.000030 0.000145 -2.728684 -116.471022 -4.417526 3.700077 0.000083 -0.000311 -85.945643 -145.645752 -143.291672 2.950072 0.000103 -0.000171 74.057883 -25.602983 19.454974 2.952880 -0.000013 0.000064 -0.000000 -0.000002 0.000000 9.104609 -0.043008 -1.865103 82.859327 -56.704490 50.933028 3.150027 0.000035 -0.000053 37.820164 -6.706568 2.300431 2.949983 0.000013 -0.000010 19.875874 -2.835596 0.497222 2.644320 0.000027 0.000048 -0.000002 -0.000001 -0.000001 8.077858 -0.486795 -3.806345 71.102659 -38.565403 28.586042 3.599943 0.000105 0.014575 43.916750 8.821261 -3.430845 2.099983 0.000037 0.007591 21.754917 7.720459 -1.436547 2.125497 -0.000014 0.007513 0.000001 -0.000000 -0.000007 -8.207786 -6.751667 -1.599560 -0.077001 -0.000003 0.000080 -0.000002 -44.370110 0.345938 0.153719 -0.000000 -0.000000 0.000000 -44.423679 -3.043532 -0.076700 0.000000 -0.000002 -0.000006 -8.728667 10.710559 -0.000009 -0.000000 -0.000000 -0.000001 -0.000679 9.278123 0.000000 -0.000000 -0.000000 8.207792 -6.751710 -1.599556 -0.074518 -0.000003 0.000081 -0.000002 -44.370014 0.346960 0.148822 0.000002 0.000000 -0.000001 -44.423664 -3.044403 -0.074314 0.000000 -0.000002 -0.000004 -8.728671 10.710558 0.000007 -0.000000 -0.000000 0.000000 -0.000680 9.278137 -0.000000 0.000000 -0.000001 
